# Blender 5.0.0 Beta
# www.blender.org
mtllib book_placeholder.mtl
o Cube
v -8.021368 -1.028049 0.360770
v -8.021368 -1.028049 -0.360770
v 8.021368 -1.028049 0.360770
v 8.021368 -1.028049 -0.360770
v -8.021368 -1.000000 0.000000
v -8.021368 1.000000 0.000000
v 8.021368 -1.000000 0.000000
v 8.021368 1.000000 0.000000
v -8.021368 3.085501 -11.723518
v -8.021368 1.057453 -12.084289
v 8.021368 1.057453 -12.084289
v 8.021368 3.085501 -11.723518
v -8.021368 -0.702129 -0.302792
v 8.021368 -0.702129 -0.302792
v -8.021368 1.383372 -12.026311
v 8.021368 1.383372 -12.026311
v -8.272116 -0.729632 -0.118647
v -8.272116 -1.065739 -0.178437
v -8.272116 1.421063 -12.208644
v -8.272116 1.084955 -12.268435
v 8.272116 1.084955 -12.268435
v 8.272116 -1.065739 -0.178437
v 8.272116 -0.729632 -0.118647
v 8.272116 1.421063 -12.208644
v 8.021368 -1.028049 0.360770
v 8.021368 -1.028049 -0.360770
v -8.021368 -1.028049 0.360770
v -8.021368 -1.028049 -0.360770
v 8.021368 -1.000000 0.000000
v 8.021368 1.000000 0.000000
v -8.021368 -1.000000 0.000000
v -8.021368 1.000000 0.000000
v 8.021368 3.085501 -11.723518
v 8.021368 1.057453 -12.084289
v -8.021368 1.057453 -12.084289
v -8.021368 3.085501 -11.723518
v 8.021368 -0.702129 -0.302792
v -8.021368 -0.702129 -0.302792
v 8.021368 1.383372 -12.026311
v -8.021368 1.383372 -12.026311
v 8.272116 -0.729632 -0.118647
v 8.272116 -1.065739 -0.178437
v 8.272116 1.421063 -12.208644
v 8.272116 1.084955 -12.268435
v -8.272116 1.084955 -12.268435
v -8.272116 -1.065739 -0.178437
v -8.272116 -0.729632 -0.118647
v -8.272116 1.421063 -12.208644
v -8.021368 -1.028049 -0.360770
v -8.021368 -1.028049 0.360770
v 8.021368 -1.028049 -0.360770
v 8.021368 -1.028049 0.360770
v -8.021368 3.085501 11.723518
v -8.021368 1.057453 12.084289
v 8.021368 1.057453 12.084289
v 8.021368 3.085501 11.723518
v -8.021368 -0.702129 0.302792
v 8.021368 -0.702129 0.302792
v -8.021368 1.383372 12.026311
v 8.021368 1.383372 12.026311
v -8.272116 -0.729632 0.118647
v -8.272116 -1.065739 0.178437
v -8.272116 1.421063 12.208644
v -8.272116 1.084955 12.268435
v 8.272116 1.084955 12.268435
v 8.272116 -1.065739 0.178437
v 8.272116 -0.729632 0.118647
v 8.272116 1.421063 12.208644
v 8.021368 -1.028049 -0.360770
v 8.021368 -1.028049 0.360770
v -8.021368 -1.028049 -0.360770
v -8.021368 -1.028049 0.360770
v 8.021368 3.085501 11.723518
v 8.021368 1.057453 12.084289
v -8.021368 1.057453 12.084289
v -8.021368 3.085501 11.723518
v 8.021368 -0.702129 0.302792
v -8.021368 -0.702129 0.302792
v 8.021368 1.383372 12.026311
v -8.021368 1.383372 12.026311
v 8.272116 -0.729632 0.118647
v 8.272116 -1.065739 0.178437
v 8.272116 1.421063 12.208644
v 8.272116 1.084955 12.268435
v -8.272116 1.084955 12.268435
v -8.272116 -1.065739 0.178437
v -8.272116 -0.729632 0.118647
v -8.272116 1.421063 12.208644
vn -1.0000 -0.0000 -0.0000
vn 1.0000 -0.0000 -0.0000
vn -0.0000 -0.9970 -0.0775
vn -0.0000 0.1751 0.9845
vn -0.0000 0.9793 0.2024
vn -0.0000 -0.9970 0.0775
vn -0.0000 0.1751 -0.9845
vn -0.0000 -0.9845 -0.1751
vn -0.0000 0.9845 0.1751
vn -0.0206 -0.9843 -0.1751
vn 0.0206 -0.9843 -0.1751
vn -0.5960 -0.1406 0.7906
vn -0.0206 0.9843 0.1751
vn 0.0206 0.9843 0.1751
vn -0.0000 -0.9890 -0.1477
vn 0.5960 -0.1406 0.7906
vn -0.0000 0.9793 -0.2024
vn -0.0000 -0.9845 0.1751
vn -0.0000 0.9845 -0.1751
vn -0.0206 -0.9843 0.1751
vn 0.0206 -0.9843 0.1751
vn -0.5960 -0.1406 -0.7906
vn -0.0206 0.9843 -0.1751
vn 0.0206 0.9843 -0.1751
vn -0.0000 -0.9890 0.1477
vn 0.5960 -0.1406 -0.7906
vt 0.375000 0.125000
vt 0.625000 0.125000
vt 0.415176 0.229912
vt 0.375000 0.250000
vt 0.375000 0.625000
vt 0.625000 0.625000
vt 0.375000 0.750000
vt 0.125000 0.625000
vt 0.125000 0.750000
vt 0.875000 0.625000
vt 0.875000 0.750000
vt 0.625000 0.750000
vt 0.875000 0.520088
vt 0.625000 0.520088
vt 0.125000 0.500000
vt 0.375000 0.500000
vt 0.625000 0.500000
vt 0.625000 0.520088
vt 0.625000 0.000000
vt 0.415176 0.229912
vt 0.875000 0.500000
s 0
usemtl Material.001
f 16/14/7 15/13/7 9/10/7 12/6/7
f 6/10/9 8/6/9 12/6/9 9/10/9
f 13/3/1 6/2/1 9/2/1 15/20/1
f 8/6/2 14/18/2 16/14/2 12/6/2
f 40/14/7 36/6/7 33/10/7 39/13/7
f 30/10/9 33/10/9 36/6/9 32/6/9
f 37/3/2 39/20/2 33/2/2 30/2/2
f 32/6/1 36/6/1 40/14/1 38/18/1
f 60/14/4 56/6/4 53/10/4 59/13/4
f 6/10/19 53/10/19 56/6/19 8/6/19
f 57/3/1 59/20/1 53/2/1 6/2/1
f 8/6/2 56/6/2 60/14/2 58/18/2
f 80/14/4 79/13/4 73/10/4 76/6/4
f 30/10/19 32/6/19 76/6/19 73/10/19
f 77/3/2 30/2/2 73/2/2 79/20/2
f 32/6/1 78/18/1 80/14/1 76/6/1
usemtl Material.002
f 5/1/1 6/2/1 13/3/1 2/4/1
f 7/5/2 8/6/2 3/7/2
f 5/8/3 7/5/3 3/7/3 1/9/3
f 8/6/4 6/10/4 1/11/4 3/12/4
f 15/13/5 16/14/5 24/14/5 19/13/5
f 2/15/6 4/16/6 7/5/6 5/8/6
f 4/17/2 14/18/2 8/6/2 7/5/2
f 1/19/1 6/2/1 5/1/1
f 4/16/8 2/15/8 10/15/8 11/16/8
f 4/16/10 11/16/10 21/16/10 22/16/10
f 10/15/11 2/15/11 18/15/11 20/15/11
f 23/18/2 22/17/2 21/17/2 24/14/2
f 18/4/1 17/3/1 19/20/1 20/4/1
f 21/17/7 20/21/7 19/13/7 24/14/7
f 14/18/12 4/17/12 22/17/12 23/18/12
f 16/14/13 14/18/13 23/18/13 24/14/13
f 13/3/14 15/20/14 19/20/14 17/3/14
f 11/16/15 10/15/15 20/15/15 21/16/15
f 2/4/16 13/3/16 17/3/16 18/4/16
f 29/1/2 26/4/2 37/3/2 30/2/2
f 31/5/1 27/7/1 32/6/1
f 29/8/3 25/9/3 27/7/3 31/5/3
f 32/6/4 27/12/4 25/11/4 30/10/4
f 39/13/5 43/13/5 48/14/5 40/14/5
f 26/15/6 29/8/6 31/5/6 28/16/6
f 28/17/1 31/5/1 32/6/1 38/18/1
f 25/19/2 29/1/2 30/2/2
f 28/16/8 35/16/8 34/15/8 26/15/8
f 28/16/11 46/16/11 45/16/11 35/16/11
f 34/15/10 44/15/10 42/15/10 26/15/10
f 47/18/1 48/14/1 45/17/1 46/17/1
f 42/4/2 44/4/2 43/20/2 41/3/2
f 45/17/7 48/14/7 43/13/7 44/21/7
f 38/18/16 47/18/16 46/17/16 28/17/16
f 40/14/14 48/14/14 47/18/14 38/18/14
f 37/3/13 41/3/13 43/20/13 39/20/13
f 35/16/15 45/16/15 44/15/15 34/15/15
f 26/4/12 42/4/12 41/3/12 37/3/12
f 5/1/1 50/4/1 57/3/1 6/2/1
f 7/5/2 51/7/2 8/6/2
f 5/8/6 49/9/6 51/7/6 7/5/6
f 8/6/7 51/12/7 49/11/7 6/10/7
f 59/13/17 63/13/17 68/14/17 60/14/17
f 50/15/3 5/8/3 7/5/3 52/16/3
f 52/17/2 7/5/2 8/6/2 58/18/2
f 49/19/1 5/1/1 6/2/1
f 52/16/18 55/16/18 54/15/18 50/15/18
f 52/16/20 66/16/20 65/16/20 55/16/20
f 54/15/21 64/15/21 62/15/21 50/15/21
f 67/18/2 68/14/2 65/17/2 66/17/2
f 62/4/1 64/4/1 63/20/1 61/3/1
f 65/17/4 68/14/4 63/13/4 64/21/4
f 58/18/22 67/18/22 66/17/22 52/17/22
f 60/14/23 68/14/23 67/18/23 58/18/23
f 57/3/24 61/3/24 63/20/24 59/20/24
f 55/16/25 65/16/25 64/15/25 54/15/25
f 50/4/26 62/4/26 61/3/26 57/3/26
f 29/1/2 30/2/2 77/3/2 70/4/2
f 31/5/1 32/6/1 71/7/1
f 29/8/6 31/5/6 71/7/6 69/9/6
f 32/6/7 30/10/7 69/11/7 71/12/7
f 79/13/17 80/14/17 88/14/17 83/13/17
f 70/15/3 72/16/3 31/5/3 29/8/3
f 72/17/1 78/18/1 32/6/1 31/5/1
f 69/19/2 30/2/2 29/1/2
f 72/16/18 70/15/18 74/15/18 75/16/18
f 72/16/21 75/16/21 85/16/21 86/16/21
f 74/15/20 70/15/20 82/15/20 84/15/20
f 87/18/1 86/17/1 85/17/1 88/14/1
f 82/4/2 81/3/2 83/20/2 84/4/2
f 85/17/4 84/21/4 83/13/4 88/14/4
f 78/18/26 72/17/26 86/17/26 87/18/26
f 80/14/24 78/18/24 87/18/24 88/14/24
f 77/3/23 79/20/23 83/20/23 81/3/23
f 75/16/25 74/15/25 84/15/25 85/16/25
f 70/4/22 77/3/22 81/3/22 82/4/22
